<svg version="1.1" id="Layer_1" xmlns="http://www.w3.org/2000/svg" xmlns:xlink="http://www.w3.org/1999/xlink" x="0px" y="0px"
	 width="100%" viewBox="0 0 451 114" enable-background="new 0 0 451 114" xml:space="preserve">
<path fill="#FEFEFE" opacity="1.000000" stroke="none" 
	d="
M327.000000,115.000000 
	C219.333344,115.000000 112.166672,114.978996 5.000142,115.095398 
	C1.576200,115.099121 0.885460,114.426239 0.900998,110.999588 
	C1.061973,75.500328 1.046457,39.999874 0.915735,4.500362 
	C0.904748,1.516725 1.518008,0.917047 4.499998,0.918911 
	C152.499939,1.011389 300.499908,1.011383 448.499847,0.918944 
	C451.481445,0.917082 452.095215,1.516155 452.084290,4.500202 
	C451.953735,40.166386 451.953796,75.833382 452.084259,111.499573 
	C452.095154,114.482994 451.483612,115.093094 448.499847,115.083855 
	C408.166870,114.958923 367.833374,115.000000 327.000000,115.000000 
z"/>
<path fill="#24272A" opacity="1.000000" stroke="none" 
	d="
M290.388367,85.396530 
	C288.108643,86.812874 286.211121,88.217995 284.108032,89.168137 
	C272.828827,94.263870 262.515167,88.424561 262.247894,76.149185 
	C261.928375,61.477783 267.887878,48.970264 277.953369,38.469395 
	C280.754852,35.546719 284.499817,34.898979 287.972748,37.324574 
	C291.267242,39.625546 291.533356,43.253353 290.499023,46.792908 
	C289.859375,48.981831 288.338409,51.165207 285.954010,48.403419 
	C284.364807,46.562683 283.431091,47.388271 282.408966,48.579723 
	C275.369476,56.785591 272.744110,66.695473 272.159302,77.136429 
	C271.900024,81.765083 276.113098,83.577736 280.883209,81.367943 
	C284.106232,79.874840 286.585510,77.355934 289.078003,74.905159 
	C292.403381,71.635406 295.611053,68.243126 299.001740,65.043877 
	C300.436066,63.690533 302.077728,62.407642 303.856018,61.603027 
	C306.553162,60.382679 309.663757,60.028725 311.548035,62.795013 
	C313.333618,65.416458 311.864441,67.957039 309.733215,69.838921 
	C303.616577,75.239906 297.370697,80.489120 290.388367,85.396530 
z"/>
<path fill="#232629" opacity="1.000000" stroke="none" 
	d="
M237.602814,71.755005 
	C236.067001,77.988152 235.030243,83.874916 234.982941,89.904182 
	C234.975143,90.896034 234.872498,91.907822 234.651459,92.873253 
	C234.083786,95.352608 232.919846,97.288132 229.944031,96.976746 
	C227.121704,96.681419 226.041382,94.898994 225.960678,92.195389 
	C225.348801,71.701180 226.060333,51.244396 227.753372,30.821165 
	C227.909210,28.941498 227.132507,25.773914 230.443985,25.982613 
	C233.295410,26.162317 233.778076,28.944136 233.920181,31.308344 
	C234.269791,37.124378 234.496490,42.948662 234.701767,48.772125 
	C234.794159,51.393158 234.717422,54.020149 234.717422,56.710667 
	C237.600479,56.941513 238.652679,54.881161 240.284271,53.949516 
	C244.359619,51.622478 248.517014,52.666183 249.151062,57.147865 
	C250.615021,67.495262 251.401138,77.942551 252.282104,88.364540 
	C252.430923,90.125160 251.903870,92.191948 249.391083,92.273842 
	C247.200104,92.345261 246.102463,90.859245 245.478516,89.026604 
	C243.964432,84.579384 243.782867,79.888077 243.093155,75.290710 
	C242.920593,74.140419 242.999069,72.930237 242.679596,71.829597 
	C242.236740,70.303848 242.370667,67.937447 240.469147,67.748253 
	C238.458542,67.548195 238.237213,69.802826 237.602814,71.755005 
z"/>
<path fill="#24272A" opacity="1.000000" stroke="none" 
	d="
M33.865074,57.159088 
	C39.824970,63.463974 41.291626,70.425552 38.120644,78.087845 
	C34.852757,85.984291 28.153471,89.792526 20.306475,91.835930 
	C17.843899,92.477196 15.309202,91.929405 13.145158,90.465988 
	C10.794894,88.876633 10.101304,86.543205 10.904235,83.913071 
	C11.758368,81.115211 13.907138,80.105865 16.719318,80.395447 
	C17.377398,80.463219 18.016806,80.699051 18.674187,80.788994 
	C23.244829,81.414375 26.919142,79.674110 29.502071,76.047318 
	C32.101654,72.397141 30.878033,68.500214 28.655807,65.316643 
	C26.105541,61.663124 22.907892,58.445419 19.863499,55.156868 
	C15.881904,50.855946 13.328325,46.192490 16.055040,40.295086 
	C19.111992,33.683441 24.039740,29.264006 31.571177,28.658548 
	C36.358280,28.273708 39.571495,30.837040 40.221836,35.015926 
	C40.850895,39.058037 38.286812,41.730919 34.480583,40.389732 
	C30.996733,39.162136 28.727261,40.006535 26.806845,42.818638 
	C24.789974,45.771988 26.258623,48.194962 28.094118,50.466988 
	C29.868956,52.663933 31.780519,54.750416 33.865074,57.159088 
z"/>
<path fill="#222528" opacity="1.000000" stroke="none" 
	d="
M361.396057,83.276070 
	C359.783417,89.215950 354.464325,91.472290 349.444153,87.657227 
	C344.721069,84.067932 341.514221,84.168861 337.212189,88.067650 
	C333.446289,91.480583 328.502991,90.873802 323.960297,89.297844 
	C319.564819,87.772964 317.535370,84.094620 318.863617,78.803581 
	C321.351379,68.893593 327.094116,60.953156 335.967377,55.913818 
	C342.873444,51.991657 348.643982,55.570274 349.149261,63.370892 
	C349.288757,65.524940 349.230316,67.691078 349.325287,69.848915 
	C349.536804,74.654381 351.381042,78.086205 356.584045,79.141335 
	C358.612701,79.552727 360.885162,80.239357 361.396057,83.276070 
z"/>
<path fill="#25282B" opacity="1.000000" stroke="none" 
	d="
M416.053345,91.955582 
	C409.620209,91.741333 406.303833,87.964745 404.416779,82.856552 
	C400.786774,73.030426 403.927063,61.465508 411.775146,54.632835 
	C416.503876,50.515945 423.195404,49.942604 426.809387,53.344707 
	C430.042999,56.388725 430.238983,63.601757 427.022675,68.171394 
	C424.166901,72.228813 420.046631,74.786858 415.621124,76.783607 
	C413.512390,77.735046 412.288696,78.804932 413.070557,81.274834 
	C413.821625,83.647392 415.628052,84.344383 417.754272,83.957672 
	C420.018860,83.545776 422.192078,82.653862 424.429260,82.062630 
	C426.382416,81.546448 428.102234,81.839546 428.973206,83.960312 
	C429.912201,86.246758 428.979889,87.911705 426.941345,88.876289 
	C423.626862,90.444633 420.139771,91.534721 416.053345,91.955582 
z"/>
<path fill="#24272A" opacity="1.000000" stroke="none" 
	d="
M84.136528,89.222733 
	C75.706322,92.458443 67.606880,93.240936 59.657291,89.074738 
	C52.588802,85.370316 50.180134,78.860733 52.913292,71.417145 
	C54.897945,66.012070 57.869473,61.215706 62.282970,57.504799 
	C66.618942,53.859074 72.563133,54.880573 75.130722,59.515869 
	C76.229576,61.499641 76.339943,64.246376 73.540039,63.635117 
	C68.404778,62.514015 66.961479,65.966843 65.365852,69.080368 
	C63.827183,72.082756 61.070911,75.767311 63.486271,78.807312 
	C66.144096,82.152481 70.779434,81.351044 74.760590,80.827003 
	C76.047836,80.657562 77.256355,79.943184 78.521904,79.544861 
	C81.320076,78.664139 84.213196,78.010345 86.083351,81.078842 
	C87.913437,84.081612 87.178360,86.809059 84.136528,89.222733 
z"/>
<path fill="#24272A" opacity="1.000000" stroke="none" 
	d="
M212.815262,90.005531 
	C204.884613,92.332741 197.391953,92.990189 190.106781,89.188293 
	C182.826202,85.388779 180.276871,78.783249 183.215561,71.153008 
	C185.275574,65.804245 188.255310,60.996391 192.743820,57.352802 
	C196.912369,53.968967 201.868027,54.724609 204.978516,58.881618 
	C205.836823,60.028721 206.347641,61.246456 205.864532,62.586807 
	C205.244415,64.307190 203.825851,63.982121 202.515213,63.537048 
	C200.346649,62.800636 199.021500,64.065529 197.852951,65.525543 
	C197.027863,66.556435 196.187927,67.659019 195.712524,68.870094 
	C194.426041,72.147293 191.081345,75.735352 193.867798,78.962029 
	C196.606262,82.133163 201.215805,81.392952 205.211853,80.785278 
	C206.179398,80.638145 207.100922,80.171448 208.036041,79.830956 
	C211.320862,78.634918 214.831497,77.650482 216.641785,81.713425 
	C218.218307,85.251778 216.805801,88.197708 212.815262,90.005531 
z"/>
<path fill="#24272A" opacity="1.000000" stroke="none" 
	d="
M149.308380,57.006390 
	C147.192581,55.575241 146.987366,53.907471 147.841354,52.025112 
	C148.787323,49.939980 150.686996,49.835911 152.515823,50.092480 
	C155.606598,50.526089 158.167145,50.325356 158.768814,46.521988 
	C158.989456,45.127422 159.983124,44.538448 161.233521,44.508713 
	C162.649246,44.475040 163.844879,44.947460 164.159882,46.594509 
	C164.691360,49.373329 166.423553,50.259819 169.174377,50.180214 
	C170.970428,50.128239 172.874496,50.608013 173.154877,53.063828 
	C173.438736,55.550209 172.129059,56.720066 169.936325,57.313835 
	C165.512497,58.511765 163.877151,61.674992 164.099228,65.966759 
	C164.339157,70.603676 163.519547,75.287163 164.772873,79.881851 
	C165.655350,83.116989 167.523178,84.840179 170.973007,83.861588 
	C172.506149,83.426697 173.913300,82.868530 174.799500,84.675400 
	C175.743057,86.599129 174.989182,88.167229 173.570953,89.597595 
	C170.702209,92.490944 167.329163,92.262268 163.806549,91.323692 
	C159.245743,90.108490 156.774017,86.941635 156.154205,82.469711 
	C155.352554,76.685699 154.884552,70.759125 155.918701,65.041245 
	C156.928238,59.459400 155.225677,57.044399 149.308380,57.006390 
z"/>
<path fill="#24272A" opacity="1.000000" stroke="none" 
	d="
M370.938538,65.221420 
	C370.161804,62.425781 369.213684,60.076927 368.872101,57.642963 
	C368.487366,54.901508 369.814087,52.799911 372.545288,51.873009 
	C375.586945,50.840729 377.014282,52.929234 377.700287,55.190075 
	C378.960693,59.344151 380.883667,58.873634 383.692352,56.717712 
	C385.379272,55.422840 387.310699,54.315781 389.300598,53.579033 
	C391.859436,52.631626 394.516449,53.109352 395.698090,55.769917 
	C396.829956,58.318394 396.005646,61.134056 393.280273,62.024956 
	C383.157684,65.333923 382.057251,72.586746 384.153931,81.498581 
	C384.416931,82.616661 384.550690,83.830856 384.420868,84.963440 
	C384.014862,88.506302 382.742828,91.831047 378.626495,91.845161 
	C374.395325,91.859680 373.218323,88.588669 373.178680,84.909912 
	C373.108643,78.408447 372.834564,71.936668 370.938538,65.221420 
z"/>
<path fill="#232629" opacity="1.000000" stroke="none" 
	d="
M99.779694,82.204697 
	C99.283569,74.619759 98.613731,67.526329 95.977982,60.758762 
	C95.272568,58.947536 94.611084,57.004261 95.692566,54.972298 
	C96.706902,53.066521 98.106995,51.759212 100.294075,51.639294 
	C102.276855,51.530575 103.449966,52.947124 103.883583,54.560345 
	C105.212677,59.505081 107.557091,58.916153 110.793030,56.276749 
	C112.303314,55.044884 114.169952,54.092129 116.029274,53.485516 
	C118.404793,52.710495 120.862068,53.170528 122.061584,55.589558 
	C123.339325,58.166332 122.621826,61.013165 119.955063,61.902920 
	C109.653435,65.340019 108.533905,72.635963 110.807610,81.756638 
	C111.280907,83.655212 111.275169,85.730125 110.406487,87.644440 
	C109.227982,90.241508 107.566658,92.373047 104.390846,91.827095 
	C101.387665,91.310814 99.902649,89.217293 99.865799,86.145279 
	C99.851814,84.980347 99.812172,83.815727 99.779694,82.204697 
z"/>
<path fill="#292C2F" opacity="1.000000" stroke="none" 
	d="
M142.074585,71.752335 
	C142.355530,76.192223 142.617630,80.165878 142.879761,84.139526 
	C143.002472,86.000061 142.823029,87.817513 141.718246,89.380089 
	C140.606339,90.952751 139.049332,92.003838 137.091354,91.791382 
	C135.131195,91.578690 134.379517,89.835556 134.128860,88.225189 
	C133.620529,84.959114 133.237869,81.647736 133.158340,78.346481 
	C133.026474,72.873466 133.227783,67.393234 133.179871,61.917000 
	C133.160004,59.644665 133.625534,57.628258 135.296417,56.031681 
	C136.376144,54.999962 137.536560,53.891575 139.210709,54.565170 
	C140.658020,55.147503 140.829773,56.552338 140.944321,57.896267 
	C141.324661,62.358700 141.686676,66.822693 142.074585,71.752335 
z"/>
<path fill="#2B2D30" opacity="1.000000" stroke="none" 
	d="
M140.106842,40.856567 
	C142.146347,42.573845 143.099228,44.522724 141.013779,46.041790 
	C138.487091,47.882252 135.355942,47.891190 132.602264,46.354610 
	C130.807693,45.353214 129.622238,43.638874 130.802841,41.366791 
	C132.084412,38.900368 134.229736,38.402962 136.694962,39.111904 
	C137.781036,39.424240 138.759933,40.109314 140.106842,40.856567 
z"/>
<path fill="#F2F3F3" opacity="1.000000" stroke="none" 
	d="
M328.304749,78.450378 
	C329.315857,72.218254 333.151245,67.832932 336.662750,63.301189 
	C338.391663,61.069931 339.690887,62.180485 340.556824,64.267288 
	C342.403564,68.717583 336.408081,79.624214 331.761353,80.392998 
	C330.171936,80.655968 329.292236,79.848244 328.304749,78.450378 
z"/>
<path fill="#F4F5F6" opacity="1.000000" stroke="none" 
	d="
M421.121582,61.593819 
	C420.229706,65.446579 417.604492,67.475784 415.000732,69.500694 
	C414.200287,70.123192 413.124084,70.488045 412.250336,69.912766 
	C411.216583,69.232117 411.728668,68.041573 412.080292,67.214455 
	C413.260193,64.438934 415.117126,62.080265 417.490723,60.267853 
	C418.764740,59.295052 420.568298,58.354504 421.121582,61.593819 
z"/>
</svg>